<?xml version="1.0" standalone="no"?>
<!DOCTYPE svg PUBLIC "-//W3C//DTD SVG 1.1//EN" "http://www.w3.org/Graphics/SVG/1.1/DTD/svg11.dtd" >
<svg xmlns="http://www.w3.org/2000/svg">
<metadata></metadata>
<defs>
<font id="astro-semiboldregular" horiz-adv-x="536" >
<font-face units-per-em="2048" ascent="1638" descent="-410" />
<missing-glyph horiz-adv-x="500" />
<glyph horiz-adv-x="0" />
<glyph unicode="&#xd;" />
<glyph unicode=" " />
<glyph unicode="!" horiz-adv-x="1173" d="M6 344q2 156 104.5 256t245.5 100q72 0 114 -19t67 -44q10 -8 17 -17.5t13 -17.5l426 426l64 -67l-422 -420l-2 -2q0 -4 8 -18.5t21 -39.5q10 -25 18 -59.5t8 -77.5q0 -141 -95 -237.5t-245 -96.5q-135 0 -237.5 97.5t-104.5 236.5zM111 346v2q0 -98 70.5 -170t170.5 -72 l4 5q100 -2 164 65.5t66 167.5q-2 109 -68.5 176.5t-165.5 67.5q-102 0 -171.5 -69.5t-69.5 -172.5z" />
<glyph unicode="&#x22;" horiz-adv-x="1488" d="M6 328q0 145 88 237t223 92q57 0 97.5 -12t66.5 -24q27 -14 40.5 -26.5t15.5 -12.5l2 4l243 188q-2 2 -5 7t-7 12q-12 27 -23.5 65.5t-11.5 97.5q0 127 94.5 218.5t235.5 91.5q131 0 219 -98.5t88 -227.5q0 -143 -92 -240.5t-219 -97.5q-39 0 -72 9.5t-63 27.5 q-20 12 -43 27.5t-47 35.5l-234 -190q23 -27 37 -66.5t14 -105.5v-10q0 -150 -96 -239t-248 -89h-4q-117 -2 -207 96.5t-92 229.5zM100 322q2 -84 67.5 -155t145.5 -71q94 0 172 70t78 160v2q0 8 -2 18t-4 23q-16 59 -70.5 113.5t-115.5 76.5q-14 4 -28.5 7t-29.5 3 q-12 0 -26.5 -3t-28.5 -9q-55 -25 -101 -83t-55 -124q-2 -6 -2 -11v-11v-3v-3zM825 950q6 -86 72 -159.5t141 -83.5q6 -2 11.5 -2h11.5q98 0 158.5 63t60.5 168v8v8q-8 84 -73.5 154t-145.5 70v2q-96 -2 -165 -69t-71 -153v-3v-3z" />
<glyph unicode="#" horiz-adv-x="1028" d="M2 53v932h922v-932h-922zM86 137h752v764h-752v-764z" />
<glyph unicode="$" horiz-adv-x="1343" d="M23 66l610 911l600 -911h-1210zM176 135h911l-454 690z" />
<glyph unicode="%" horiz-adv-x="1269" d="M23 84v96h509l-509 785h110l455 -709l454 709h105l-504 -785h512v-96h-1132z" />
<glyph unicode="&#x26;" horiz-adv-x="1269" d="M23 874l4 99h1128l2 -99h-514l506 -784h-107l-452 711l-455 -711h-108l505 784h-509z" />
<glyph unicode="'" horiz-adv-x="1028" d="M4 459l2 90h350l-274 278l59 62l277 -275v404h84v-404l276 281l56 -61l-285 -285h377v-90l-369 2l281 -283l-60 -59l-276 278v-393h-84v393l-283 -282l-53 65l274 281z" />
<glyph unicode="(" horiz-adv-x="1318" d="M16 82l58 80l547 805h104l-530 -797h1007v-88h-1186z" />
<glyph unicode=")" horiz-adv-x="1148" d="M20 299v844h881v-844h-502v-215h627v-84h-711v299h-295zM104 381h211v168h88v-168h410v676h-709v-676z" />
<glyph unicode="*" horiz-adv-x="784" d="M23 2v1034h317q12 -2 25.5 -3t25.5 -3q92 -10 169 -70.5t77 -187.5q0 -104 -55.5 -155.5t-139.5 -73.5q96 -20 163 -86t67 -187q0 -137 -90 -203.5t-201 -66.5zM184 575h135q72 -2 111 56.5t39 140.5q0 92 -43 139t-121 47l-121 7v-390zM190 63l113 3q84 -2 138.5 53 t54.5 160q0 106 -54.5 165.5t-144.5 59.5l-107 2v-443z" />
<glyph unicode="+" horiz-adv-x="858" d="M4 528q0 203 79 363t284 160q213 0 284.5 -156t71.5 -358v-55.5t-2 -55.5q-6 -121 -43 -231.5t-141 -169.5q2 -8 6 -18.5t10 -22.5q12 -23 29.5 -43.5t40.5 -20.5q25 0 37 20.5t16 45.5v7v7v23l55 -19q0 -4 1 -8t3 -10q0 -78 -31.5 -135.5t-107.5 -57.5q-72 0 -114 57.5 t-58 126.5q-2 4 -3 9.5t-1 11.5q-18 -2 -34.5 -2h-29.5h-11h-11q-80 4 -154 48t-114 124q-23 47 -35.5 98t-18.5 105q-4 39 -6 78.5t-2 78.5zM190 465q0 -25 1.5 -48.5t5.5 -45.5q4 -47 14 -93.5t22 -91.5v2q2 0 3.5 3.5t3.5 5.5q18 31 42.5 57.5t61.5 26.5q57 0 84 -38 t45 -93q39 76 51.5 154.5t12.5 162.5v76t-2 141q0 20 -3.5 44t-7.5 46q-16 80 -56 147.5t-101 67.5l-5 2q-80 -2 -126 -102.5t-46 -259.5v-164zM250 121q14 -33 44 -54.5t66 -21.5q6 0 14.5 2t18.5 4q4 2 7 3t8 1v2q-2 8 -4.5 21.5t-6.5 27.5q-8 33 -23.5 60t-39.5 29 q-29 0 -48.5 -19.5t-31.5 -44.5q0 -2 -1 -5t-3 -5z" />
<glyph unicode="," horiz-adv-x="710" d="M10 0v1040h137l383 -796v796h64v-1040h-141l-375 795v-795h-68z" />
<glyph unicode="-" horiz-adv-x="808" d="M12 115v92h676v-92h-676zM12 563v101h283v268h104v-268h289v-99h-287v-248h-106v246h-283z" />
<glyph unicode="." horiz-adv-x="299" d="M10 82q0 37 28 64.5t60 27.5q35 0 63.5 -28.5t28.5 -63.5v2q0 -41 -28.5 -64.5t-63.5 -23.5q-33 0 -60.5 23.5t-27.5 62.5z" />
<glyph unicode="/" horiz-adv-x="905" d="M25 -133l649 1343h119l-648 -1343h-120z" />
<glyph unicode="0" horiz-adv-x="733" d="M41 467v24.5v24.5v2v37.5t2 38.5q8 170 73.5 312.5t250.5 142.5q180 0 248.5 -142.5t78.5 -312.5q0 -18 1 -37.5t1 -40.5v-19.5v-19.5q-4 -182 -69.5 -333.5t-259.5 -151.5q-188 0 -254 148.5t-72 326.5zM233 516v2q0 -66 2.5 -129t6.5 -127q2 -18 4 -37.5t6 -40.5 q12 -55 37.5 -100t77.5 -45q53 0 79.5 45t36.5 100q4 20 7.5 40t3.5 38q4 63 6 127t2 127q0 45 -1 92t-3 94q0 16 -1 32t-3 32q0 18 -3.5 38.5t-7.5 41.5q-10 55 -36.5 100t-79.5 45q-49 0 -76 -45t-39 -100q-4 -20 -6 -41t-4 -39q-2 -16 -3 -31.5t-1 -32.5q-2 -47 -3.5 -94 t-1.5 -92z" />
<glyph unicode="1" horiz-adv-x="733" d="M152 745v93q76 12 135 55t92 137l102 2v-1030h-157l2 832q-6 -8 -12.5 -14.5l-12.5 -12.5q-33 -31 -68.5 -43t-80.5 -19z" />
<glyph unicode="2" horiz-adv-x="733" d="M78 2v107q25 39 50.5 74.5t49.5 68.5q39 49 77 91t73 77l7 7t5 7l8 8t8 11q57 61 104.5 133.5t47.5 185.5v8q0 6 -1 14.5t-1 16.5q-10 63 -52 116.5t-100 53.5q-82 0 -125 -66.5t-47 -146.5v-7v-5q0 -14 1 -29.5t5 -34.5q4 -25 10.5 -48t14.5 -40l-107 31q-6 16 -10 39.5 t-6 48.5q0 10 -1 21.5t-1 21.5q0 131 92 208t205 77h3h3q106 -2 194.5 -73t90.5 -196q0 -92 -53.5 -168.5t-118.5 -142.5q-33 -37 -65.5 -69.5t-57.5 -65.5l-90 -121q-4 -6 -10.5 -12t-12.5 -13q0 -2 -1 -2h-1l-12 -12l-10 -10l415 2v-166h-581z" />
<glyph unicode="3" horiz-adv-x="733" d="M55 219q0 27 2 55.5t9 57.5v2l94 12q0 -6 -2 -9t-2 -7q-2 -12 -5.5 -25.5t-5.5 -25.5t-3 -22.5t-1 -20.5q0 -84 48.5 -134.5t121.5 -50.5q90 0 144.5 73t54.5 165q0 111 -80 161t-194 50v82q0 -2 1 -2h3q0 -2 1 -2h1q115 0 182.5 54t67.5 173q0 72 -46.5 119t-111.5 47 h-3h-3q-59 -2 -109.5 -38t-50.5 -110v-11v-9q0 -23 2 -42.5t8 -33.5l-94 25v41q0 129 88 189t195 60q10 0 21 -1t22 -1q90 -12 165.5 -74.5t75.5 -174.5q0 -106 -58 -164t-142 -88q106 -23 166.5 -78t60.5 -187q0 -72 -32 -136t-89 -101q-25 -14 -53.5 -23.5t-59.5 -13.5 q-20 -2 -40.5 -3t-38.5 -1q-20 0 -44 2t-47 4q-82 14 -150.5 64.5t-68.5 152.5z" />
<glyph unicode="4" horiz-adv-x="733" d="M31 233v97l418 710h122v-714h121v-93h-121v-231l-174 -2v233h-366zM117 326h286v499z" />
<glyph unicode="5" horiz-adv-x="733" d="M25 209v15t2 16q0 18 3 35.5t7 29.5l92 29q-4 -14 -6 -26.5t-4 -26.5q0 -14 -1 -29.5t-1 -28.5q0 -74 49 -122t119 -48q96 0 159.5 74t79.5 164q2 12 3 25.5t1 25.5q0 104 -57 176t-162 72q-43 0 -74.5 -15.5t-60.5 -46.5q-8 -10 -17.5 -20t-19.5 -23l-80 29l88 526h512 l-32 -153h-428l-47 -289q18 12 36.5 23.5t34.5 19.5q35 18 73 26.5t83 8.5q147 0 235 -88t88 -242q0 -156 -108.5 -254t-247.5 -98q-25 0 -50.5 2t-51.5 6q-82 16 -149.5 65.5t-67.5 141.5z" />
<glyph unicode="6" horiz-adv-x="733" d="M72 481q0 18 1 38t1 38q12 182 90 334.5t260 152.5q12 0 24.5 -1t22.5 -3q68 -14 124 -62t56 -132q0 -8 -1 -16.5t-1 -14.5q0 -8 -1 -15t-1 -14v2l-90 -22q2 8 4 19.5t2 23.5q2 10 2 21.5v21.5q0 55 -31.5 93t-78.5 40q-57 0 -101.5 -38t-66.5 -101q-14 -47 -22.5 -97.5 t-12.5 -99.5q-2 -25 -3 -49.5t-1 -48.5q29 59 77 93t105 34q121 0 176.5 -100.5t55.5 -223.5q0 -150 -68 -255t-213 -105q-193 0 -251 147.5t-58 339.5zM242 346v2q0 -29 2 -62.5t6 -68.5q10 -68 36.5 -124t80.5 -56q61 0 91.5 57.5t41.5 126.5q6 35 8 69t2 60q0 20 -2 46 t-6 53q-10 57 -36 103t-77 50q-70 0 -103.5 -64.5t-41.5 -142.5q0 -12 -1 -24.5t-1 -24.5z" />
<glyph unicode="7" horiz-adv-x="733" d="M39 872l35 164h622v-129q-23 -37 -44 -70.5t-40 -66.5q-100 -182 -147 -369.5t-59 -400.5h-197q25 102 53.5 197.5t65.5 187.5q45 115 106.5 232.5t145.5 252.5z" />
<glyph unicode="8" horiz-adv-x="733" d="M47 272q0 88 47 148.5t119 91.5v2q-53 31 -94 96.5t-41 147.5q0 133 88 209.5t199 76.5h17t17 -2q88 -8 161 -65t73 -170q0 -78 -50.5 -139.5t-109.5 -87.5q18 -8 42 -22.5t48 -33.5q49 -39 89 -95t40 -128q0 -158 -99 -231.5t-228 -73.5q-12 0 -25.5 1t-28.5 3 q-98 12 -181 78.5t-83 193.5zM135 283q0 -104 70.5 -172t159.5 -68h12t12 2q63 10 114.5 60.5t51.5 123.5q0 78 -47 125t-105 76q-39 18 -73.5 31.5t-55.5 23.5v2q-2 -4 -5 -5t-5 -3q-49 -33 -89 -81t-40 -115zM197 817q0 -78 61 -129t135 -76q8 -4 17.5 -6t17.5 -4v2 q2 0 5 2t5 4q41 29 75 72t34 98q0 86 -52.5 140.5t-123.5 56.5h-8.5h-8.5q-59 -4 -108 -42t-49 -118z" />
<glyph unicode="9" horiz-adv-x="733" d="M51 655v11.5v11.5q0 152 76 258t219 106q190 0 251.5 -148.5t64.5 -328.5v-11v-11q0 -207 -75 -378t-292 -171h-13.5t-13.5 2q-76 4 -138 49t-62 141q0 14 3 27.5t5 28.5v2l92 28q-6 -18 -10 -43.5t-4 -58.5q0 -51 35.5 -87t76.5 -42q4 -2 8.5 -2h8.5q41 0 73.5 23.5 t57.5 60.5q27 45 40 98t19 109q4 29 6 57.5t4 54.5q0 8 1 16.5t1 16.5q-39 -57 -85 -91t-115 -34q-115 0 -171.5 95.5t-62.5 209.5zM217 688q0 -23 1 -49.5t5 -54.5q8 -59 33 -108.5t78 -53.5q76 0 107.5 61.5t39.5 134.5q0 16 1 33t1 33v2q0 23 -1 54.5t-7 64.5 q-8 63 -35.5 117.5t-87.5 54.5q-59 0 -87.5 -52.5t-39.5 -115.5q-4 -33 -6 -64.5t-2 -56.5z" />
<glyph unicode=":" horiz-adv-x="348" d="M18 219v7t2 7q6 31 36 56.5t65 25.5v2q2 -2 3 -2h3q35 -2 64.5 -32.5t29.5 -67.5q0 -47 -29.5 -78t-64.5 -33h-3h-3q-39 0 -71 34t-32 81zM25 831v3v5t2 7q6 31 31.5 55.5t54.5 30.5h5h5q41 0 70.5 -30t29.5 -71q0 -45 -29.5 -73.5t-70.5 -28.5t-69.5 28.5t-28.5 73.5z " />
<glyph unicode=";" horiz-adv-x="1294" d="M4 608q0 260 174 442.5t408 186.5v2q252 -6 417.5 -181t165.5 -450q0 -260 -172 -436t-401 -176q-233 0 -412.5 178t-179.5 434zM137 567q16 -160 140 -287.5t268 -144.5v432h-408zM143 655l402 2v453q-156 -35 -272.5 -165t-129.5 -290zM631 133q135 12 248.5 124 t148.5 243q4 16 6 32.5t4 32.5l-407 2v-434zM631 657h403q-16 180 -124.5 301t-278.5 146v-447z" />
<glyph unicode="&#x3c;" horiz-adv-x="1458" d="M20 313q0 23 7 62q-2 14 -2 28q25 2 45 3q39 0 71 -11q10 -6 11 -20q-2 -23 -2 -39q0 -23 2 -35q20 -51 34.5 -64.5t39 -19.5t46 -8t33.5 -2q37 0 57.5 8t42 25.5t28.5 38t7 49.5q-2 43 -2 67q0 39 -30 86q-20 31 -54.5 65t-72.5 111q-2 18 -5 37q-96 170 -96 297 q0 168 134.5 278.5t338.5 110.5q221 0 356.5 -116.5t135.5 -313.5q0 -43 -6 -86t-16.5 -76.5t-38 -95t-68.5 -141.5l-62 -123q-70 -137 -75 -158q2 0 6 2q31 -43 50 -56t54 -13q39 2 68 2q35 0 69.5 22.5t34.5 53.5q4 29 4 45q0 20 -10 63h145q2 -70 3 -84q0 -16 -12.5 -45 t-27 -67.5t-40.5 -63.5q-37 -33 -95 -33q-23 0 -48 -1t-52 -1q-45 0 -88 4t-80 29t-76 51q-35 31 -34 86q0 41 24 121q14 41 41 81t53 87l45 80q51 88 75 168t24 143q0 143 -98.5 240.5t-260.5 97.5q-145 0 -242.5 -84t-97.5 -215q0 -66 19 -137q12 -39 28.5 -75t40.5 -77 l37 -65q76 -137 80 -144q39 -70 49 -100q25 -72 25 -109q0 -49 -60 -100q-14 -14 -45.5 -36.5t-52.5 -33.5q-4 -2 -72 -2q-76 0 -115.5 3.5t-72.5 15.5q-86 27 -96 41q-10 35 -43 88q-14 27 -15 61z" />
<glyph unicode="=" horiz-adv-x="808" d="M8 649v74h678v-74h-678zM12 360v78h674v-78h-674z" />
<glyph unicode="&#x3e;" horiz-adv-x="1452" d="M18 1171q0 16 11.5 44t25.5 61q16 47 43 72q37 33 95 32h48t52 2q45 0 88 -4t80 -29.5t76 -50.5q35 -31 34 -86q0 -41 -24 -120q-14 -41 -41 -81t-53 -87l-45 -80q-51 -88 -75 -168t-24 -144q0 -143 98.5 -240t260.5 -97q145 0 242.5 83.5t97.5 215.5q0 66 -15.5 121 t-32 90.5t-40.5 76.5l-37 66q-76 137 -80 143q-39 70 -49 101q-25 72 -25 108q0 49 59 100q14 14 46 37t53 33q4 2 71 2q76 0 116 -3t73 -15q86 -27 96 -41q10 -35 43 -88q14 -27 14 -62q0 -23 -6 -61q0 -15 2 -29q-25 -2 -45 -2q-35 0 -71 10q-10 6 -11 21q2 27 2 49 q0 16 -2 25q-20 51 -34.5 64t-39 19.5t-46 7.5t-33.5 3q-37 0 -57.5 -8.5t-42 -25.5t-28.5 -37.5t-7 -49.5q2 -43 2 -68q0 -39 30 -86q20 -31 54 -64.5t73 -111.5q2 -18 4 -37q96 -170 97 -297q0 -168 -134.5 -278.5t-338.5 -110.5q-221 0 -356.5 117t-135.5 313q0 43 6 86 t16.5 77t38 95.5t68.5 141.5l62 123q80 158 77 165q-2 -4 -4 -6q-29 41 -49 53.5t-51 12.5q-43 -2 -76 -2q-35 0 -69.5 -22.5t-34.5 -53.5q-4 -29 -4 -45q0 -20 10 -64h-146q-2 70 -2 84z" />
<glyph unicode="?" />
<glyph unicode="@" />
<glyph unicode="A" horiz-adv-x="1804" d="M8 1036q0 154 97.5 249t246.5 95h20.5t20.5 -2q166 -14 306.5 -129.5t152.5 -283.5v2q14 176 160.5 294.5t345.5 118.5q154 0 241 -89t87 -247v-4q0 -145 -71 -251.5t-155 -124.5q-6 0 -13 -1t-13 -1l-99 157q20 -2 42 3t44 14q63 27 119.5 81t73.5 113q2 8 3 17.5 t1 17.5q-2 76 -67.5 124t-143.5 60q-16 4 -31.5 5t-29.5 1q-123 0 -218.5 -97t-134.5 -216q-12 -31 -17 -62.5t-5 -62.5v-889h-244v891q0 29 -6 61.5t-16 65.5q-37 117 -130.5 213t-220.5 96l-2 2q-16 -2 -32.5 -4t-32.5 -4q-76 -16 -138.5 -66t-62.5 -128 q0 -82 64.5 -142.5t142.5 -85.5q18 -4 36.5 -7t37.5 -3l-99 -153q-8 -2 -17 -1t-18 3q-84 23 -154.5 128t-70.5 242z" />
<glyph unicode="B" horiz-adv-x="1124" d="M2 385q0 186 112.5 318.5t264.5 189.5q-25 0 -52.5 6t-54.5 16q-98 39 -181 149t-83 298v2t2 4v2v2q63 -193 192.5 -304.5t327.5 -121.5q164 6 294 120t180 312v-6v-11v-11q-8 -168 -118 -312.5t-247 -167.5q137 -20 230.5 -103t107.5 -282v-8v-8v-4t2 -4v-12.5v-12.5 q0 -236 -163 -376t-357 -144h-33q-143 0 -265 80t-151 303v2q0 6 -1 13.5t-3 13.5q-2 14 -3 29.5t-1 27.5zM160 508q0 -35 7 -72t17 -76q59 -184 140.5 -264t167.5 -94q12 -2 23 -2h24h25.5t27.5 2t27.5 5t25.5 5v2q80 33 120 125t40 205q0 27 -2 54.5t-6 56.5 q-6 29 -12.5 56.5t-16.5 53.5q-51 143 -134 212t-173 69q-23 0 -46.5 -4t-45.5 -15q-100 -39 -154.5 -124t-54.5 -195z" />
<glyph unicode="C" horiz-adv-x="1363" d="M53 1352v22l1235 -2v-18q-49 -2 -79.5 -36t-30.5 -99v-1160q4 -49 33.5 -77.5t76.5 -28.5l-4 -19h-1223l-2 19q51 0 86 38t35 87v1145q0 78 -33.5 103.5t-93.5 25.5zM432 88q0 -51 18.5 -83t69.5 -32l314 -2q37 0 64.5 27t27.5 76v1138q0 55 -31 85t-100 30l-256 2 q-53 -2 -80 -32.5t-27 -77.5v-1131z" />
<glyph unicode="D" horiz-adv-x="1804" d="M8 371q0 135 109.5 235.5t240.5 128.5q23 4 44.5 7t43.5 3q141 0 238.5 -72.5t116.5 -158.5q2 -6 3 -11t1 -11q0 -129 -79 -235.5t-200 -106.5q12 10 24.5 18t22.5 18q55 45 86 94.5t31 114.5v2v9q0 94 -80 171.5t-198 77.5q-88 0 -149.5 -60t-61.5 -151v-4t2 -2v-4v-4 q16 -186 190 -273t393 -91q76 0 161 8t173 24q135 29 265.5 83.5t220.5 144.5q-51 -129 -213 -227.5t-344 -147.5q-72 -18 -142.5 -28.5t-134.5 -10.5q-45 0 -93 2t-97 6q-215 18 -394.5 110.5t-179.5 340.5zM82 948q41 135 201.5 234.5t345.5 146.5q74 20 146.5 30.5 t137.5 10.5q47 0 98.5 -2t102.5 -6q213 -20 390 -115.5t177 -341.5q-2 -135 -110.5 -235.5t-239.5 -128.5q-23 -4 -45 -7.5t-45 -3.5v2q-2 -2 -4 -2h-4q-4 -2 -6 -2h-4q-147 0 -242.5 71t-99.5 183q0 141 78.5 241.5t201.5 100.5q-4 -4 -9 -7t-11 -7q-68 -49 -106 -102.5 t-38 -122.5l-2 -4q0 -109 75 -181.5t208 -83.5q92 0 149.5 61.5t57.5 149.5v17q-8 166 -144.5 250t-298.5 106q-37 6 -71.5 8t-69.5 2q-74 0 -156.5 -7t-166.5 -23q-139 -27 -271.5 -82.5t-224.5 -149.5z" />
<glyph unicode="E" horiz-adv-x="1488" d="M16 539v4t2 6v4v4q8 82 56.5 131t122.5 49q-61 -14 -86 -49t-29 -96v-4v-4q-2 -4 -2 -6.5v-4.5q0 -57 33.5 -83.5t115.5 -26.5h5.5h5.5q2 -2 5 -2h5q92 0 162.5 55t91.5 166v2v14q0 33 -14.5 86.5t-30.5 112.5q-4 14 -8.5 27.5t-8.5 27.5q-12 47 -21 92.5t-9 83.5v9.5 t2 9.5q0 14 3 27.5t7 25.5q31 72 95.5 112t133.5 56q25 4 50.5 7t48.5 3h12h12q14 -2 26.5 -3t22.5 -3q207 -39 303.5 -128t96.5 -218v-22q-6 -102 -52.5 -215t-99.5 -238q-41 -98 -78 -203.5t-57 -218.5v-2v-4q-2 -2 -2 -4v-2v-3v-3q4 -53 59.5 -97.5t134.5 -46.5h33 q57 0 92 16.5t52 45.5q4 16 7 32.5t3 28.5q0 33 -15.5 52.5t-39.5 19.5q-10 0 -24.5 -3t-31.5 -12q-4 -2 -9 -4t-11 -4h-4h-4q-4 0 -8.5 1t-10.5 1q-25 6 -46 30t-21 62v1q0 2 2 4v3v1q2 33 28.5 51t65.5 18h12t14 -2q4 0 9.5 -1t9.5 -1q59 -10 102 -57t43 -146v-25t-2 -28 q-18 -68 -82.5 -108.5t-156.5 -40.5h-22.5t-24.5 2q-113 16 -181.5 72.5t-83.5 146.5v5v5q-2 2 -2 5v5q0 66 36 177.5t81 236.5q4 14 9 28.5t9 28.5q39 113 68 218.5t29 183.5v14q0 123 -41 180.5t-144 96.5q-4 2 -11 2t-13 2h-5h-7q-18 0 -39 -4t-41 -15q-47 -20 -90 -63 t-66 -107q0 -4 -1 -9t-1 -9t-1 -6t-1 -6v-5.5v-5.5q0 -35 8 -80t16 -94q0 -4 1.5 -8t3.5 -8q8 -43 14 -86t6 -78v-8v-8q-2 -8 -2 -16.5t-2 -16.5q-31 -131 -152.5 -203t-267.5 -72q-102 0 -152.5 35t-50.5 101z" />
<glyph unicode="F" horiz-adv-x="1683" d="M2 1235q0 68 60.5 106.5t162.5 38.5h17.5t17.5 -2q51 -4 96 -29.5t64 -86.5q20 55 73.5 80.5t114.5 31.5q18 4 37 5t37 1h7h7q61 -2 114.5 -25.5t70.5 -86.5q25 57 79 77.5t115 26.5q18 2 39 3t39 1t38.5 -4t41.5 -10q53 -20 98 -65.5t45 -120.5v-86q74 -14 112 -86 t38 -222q-8 -129 -44 -233.5t-77 -181.5q-27 -49 -51.5 -87t-42.5 -61q23 -27 53.5 -68.5t67.5 -84.5q6 -8 13 -17.5t13 -17.5q27 -31 54.5 -61.5t50.5 -53.5h-99q-23 18 -50.5 50t-57.5 67q-6 10 -13.5 19t-15.5 18q-16 23 -30.5 43t-28.5 39q-14 -20 -30.5 -48t-35.5 -57 q-27 -41 -54.5 -77t-55.5 -54h-127q18 16 37.5 40t39.5 50q12 16 24.5 34.5t25.5 37.5q33 49 60.5 95t41.5 73q-8 12 -18.5 27.5t-18.5 31.5q-51 90 -94 232.5t-47 308.5v5v5q-2 2 -2 5v5q0 109 35.5 157t111.5 67l4 67q-2 59 -42 94t-95 37q-66 -2 -106.5 -39t-40.5 -84 l4 -909h-213v915q0 61 -36 90t-93 29q-63 0 -97 -34.5t-34 -81.5v2v-920h-213v915q0 70 -29 97.5t-70 27.5q-33 0 -55 -14t-43 -47zM1098 770h2v-3v-1q6 -39 14 -82t21 -90q18 -76 45.5 -147.5t64.5 -112.5q31 74 51.5 135t32.5 121q10 51 16.5 101t8.5 108v2q0 131 -36 169 t-104 40q-51 0 -83.5 -52.5t-32.5 -183.5v-1v-3z" />
<glyph unicode="G" horiz-adv-x="1294" d="M12 -68v164h1180v-164h-1180zM12 391h183q-82 39 -120 157t-38 273v4t2 4v3v4q4 231 157.5 389.5t407.5 158.5q246 0 413 -159.5t167 -409.5v2q0 -23 -1 -44t-5 -44q-14 -106 -60.5 -201.5t-118.5 -138.5l193 2v-166h-500q125 57 197 199.5t88 302.5q2 23 3 45.5t1 44.5 q0 23 -2 47.5t-6 46.5q-23 152 -118 278t-251 126q-176 0 -268 -132t-107 -290q0 -16 -1 -31.5t-1 -30.5q0 -203 69 -376.5t234 -231.5l-514 2z" />
<glyph unicode="H" horiz-adv-x="2048" d="M20 1219q4 66 62.5 111.5t153.5 45.5q12 0 25 -1t26 -5q47 -10 88 -43t51 -90q25 68 80 102.5t168 36.5q18 0 39.5 -3t44.5 -11q53 -16 97 -50t52 -85q20 76 75.5 111.5t166.5 37.5q20 0 46 -6t52 -18q55 -27 101.5 -73t46.5 -105v-889q0 -156 66.5 -233t187.5 -81 q68 0 112.5 32t55.5 73q2 6 3 11t1 11v13q0 -2 -2 6t-7 18q-2 10 -7 18.5t-11 8.5l-82 -43v338l227 -226l-88 -43q2 -6 4.5 -11t6.5 -9v-2v-2q8 -10 13 -23.5t5 -31.5q0 -90 -80 -157t-227 -69q-166 2 -279.5 110.5t-113.5 260.5v915q0 51 -35 80t-101 29q-57 0 -96 -36 t-39 -81l2 -917h-211l5 913q0 51 -38 86t-98 35q-66 0 -103.5 -36t-37.5 -85l-2 -913h-209v913q0 68 -26.5 94.5t-69.5 26.5q-33 0 -56.5 -13.5t-44.5 -45.5z" />
<glyph unicode="I" horiz-adv-x="1464" d="M6 68l404 393q-10 8 -24.5 22.5t-31.5 28.5q-8 8 -17 15.5t-18 13.5q-23 16 -44 29.5t-35 19.5l47 96q16 -12 38.5 -29.5t47.5 -38.5q6 -4 13 -10t13 -12q23 -18 41.5 -35.5t30.5 -32.5l668 674l-185 23l396 139l-148 -389l-2 176l-622 -721q14 -20 27 -40.5t26 -41.5 q23 -37 40 -70.5t25 -54.5l-86 -45q-2 8 -6 19.5t-8 21.5q-14 37 -35.5 72t-48.5 61v2l-375 -436z" />
<glyph unicode="J" horiz-adv-x="1609" d="M25 1090q98 14 176 82.5t129 185.5q49 -45 102 -75t109 -48q53 -16 106 -23.5t103 -7.5v2h16q68 0 153 14q95 17 193 42q57 14 111.5 29.5t105.5 29.5q45 14 87 28.5t77 26.5q-12 -8 -23.5 -15t-21.5 -15q-223 -145 -436 -305t-381 -357q20 8 42.5 14.5t43.5 10.5 q37 8 73.5 11t69.5 3l45 2q201 -2 302.5 -93t101.5 -298q0 -174 -132.5 -297t-357.5 -123q-213 0 -360.5 131t-147.5 307q-2 4 -3 11.5t-1 15.5q0 12 2 29.5t6 33.5q6 18 14.5 37t18.5 31q-80 -29 -142.5 -101.5t-101.5 -193.5q10 145 90 250.5t193 155.5q27 59 90.5 124.5 t149.5 133.5q57 45 120.5 90t129.5 88q68 45 134 88t126 82q-117 -59 -193 -86t-143 -33q-12 -2 -24.5 -2h-24.5h-4.5h-4.5q-2 -2 -4 -2h-4q-35 0 -89 9t-114 28q-55 18 -106 44.5t-86 63.5q-37 -53 -80 -90t-86 -57q-25 -12 -48.5 -17.5t-45.5 -5.5h-9t-10 2q-10 0 -19 3 t-17 6zM524 371q0 -2 2 -4v-4.5v-4.5q0 -127 100.5 -229t219.5 -125q14 -4 27.5 -4h27.5h7h5h4.5h4.5q4 0 9 1t7 1v2q115 20 164 91t49 214q0 170 -84 251t-223 81l-27 2q-47 -2 -92 -9t-78 -18q-23 -6 -37 -11t-16 -9q-37 -27 -53.5 -88.5t-16.5 -132.5v-4z" />
<glyph unicode="K" horiz-adv-x="1949" d="M10 387q4 209 73 314.5t181 105.5l6 2q109 -2 167.5 -58.5t105.5 -215.5q10 -29 18 -63t19 -73q53 -203 104 -275.5t88 -72.5q23 0 70 55.5t98 198.5q10 29 19.5 60.5t19.5 66.5q18 63 34.5 112.5t33.5 84.5q37 84 78.5 111.5t101.5 29.5q39 0 69.5 -11t57.5 -52 q27 -39 56.5 -116t66.5 -210q49 -164 77.5 -223.5t53.5 -69.5q4 -2 9 -3t11 -1q14 0 33.5 21.5t40.5 56.5q29 53 55.5 129t38.5 160q0 -150 -30.5 -254.5t-67.5 -163.5q-27 -37 -49.5 -57.5t-36.5 -20.5h-8q-74 0 -138.5 62.5t-126.5 316.5v2q-35 141 -60.5 207.5 t-47.5 87.5q-10 10 -21.5 13t-21.5 3q-14 0 -25.5 -3t-21.5 -15q-18 -18 -40 -72.5t-57 -167.5q-23 -84 -42 -148.5t-39 -111.5q-45 -109 -93.5 -146.5t-113.5 -39.5q-80 0 -134.5 31.5t-103.5 134.5q-23 43 -44 101t-44 134q-25 88 -45 145.5t-41 90.5q-25 43 -51.5 56 t-63.5 15q-68 -2 -120 -51t-99 -213zM37 981q6 211 76.5 303t183.5 92q115 0 182.5 -50t126.5 -216q10 -31 20.5 -63.5t20.5 -71.5q53 -182 93 -241.5t67 -63.5q23 0 51.5 46t73.5 251q8 37 16 68.5t17 60.5q49 166 106 221t166 55q82 -2 134 -35.5t97 -148.5 q16 -41 32 -93.5t34 -117.5q53 -213 80.5 -261t50.5 -50v2q14 -2 31.5 18.5t34.5 54.5q29 55 53 136t41 167v3.5v3.5q-2 -164 -35 -278t-72 -177q-23 -35 -44 -53.5t-36 -18.5q-16 0 -32.5 5.5t-32.5 17.5q-33 27 -68 101.5t-84 240.5q-20 78 -38.5 135t-39.5 98 q-31 63 -61.5 91t-64.5 28q-57 0 -108.5 -62.5t-94.5 -244.5q-29 -119 -55.5 -195.5t-53.5 -124.5q-29 -51 -58.5 -69.5t-62.5 -18.5l-2 4l-6 -2h-3q-43 0 -105 64q-64 66 -158 321q-47 125 -85 194t-75 101q-23 20 -46 28.5t-48 10.5q-68 -4 -120 -52t-99 -214z" />
<glyph unicode="L" horiz-adv-x="1220" d="M8 1384q168 -53 274.5 -223t133.5 -362q6 -31 8 -62.5t2 -62.5q6 0 13 1t14 3q23 2 50 4t58 2h7h5q37 0 70 -2t53 -8q4 219 105.5 410.5t312.5 293.5q-88 -92 -140 -240.5t-73 -308.5q-4 -49 -7 -96t-3 -92q10 -2 21.5 -3t21.5 -5q31 -6 58.5 -15.5t41.5 -19.5v-96 q-10 4 -20 10t-21 10q-25 10 -48 16.5t-54 8.5v2v-19.5v-19.5q4 -162 50 -317.5t169 -266.5q-145 57 -269 237.5t-145 385.5q0 6 -1 12t-1 12q-25 6 -58.5 8.5t-74.5 2.5q-39 0 -72.5 -2t-62.5 -9q-31 -231 -129 -409t-285 -236q115 102 162 243.5t57 289.5q0 25 1 47t1 45 q-45 -4 -88 -16.5t-69 -28.5v98q25 14 63.5 27.5t79.5 19.5q4 0 7 1t7 1q0 61 -6 128t-20 135q-25 133 -74 256.5t-125 209.5z" />
<glyph unicode="M" horiz-adv-x="1458" d="M20 313q0 23 7 62q-2 14 -2 28q25 2 45 3q39 0 71 -11q10 -6 11 -20q-2 -23 -2 -39q0 -23 2 -35q20 -51 34.5 -64.5t39 -19.5t46 -8t33.5 -2q37 0 57.5 8t42 25.5t28.5 38t7 49.5q-2 43 -2 67q0 39 -30 86q-20 31 -54.5 65t-72.5 111q-2 18 -5 37q-96 170 -96 297 q0 168 134.5 278.5t338.5 110.5q221 0 356.5 -116.5t135.5 -313.5q0 -43 -6 -86t-16.5 -76.5t-38 -95t-68.5 -141.5l-62 -123q-70 -137 -75 -158q2 0 6 2q31 -43 50 -56t54 -13q39 2 68 2q35 0 69.5 22.5t34.5 53.5q4 29 4 45q0 20 -10 63h145q2 -70 3 -84q0 -16 -12.5 -45 t-27 -67.5t-40.5 -63.5q-37 -33 -95 -33q-23 0 -48 -1t-52 -1q-45 0 -88 4t-80 29t-76 51q-34 30 -34 83q0 44 24 124q14 41 41 81t53 87l45 80q51 88 75 168t24 143q0 143 -98.5 240.5t-260.5 97.5q-145 0 -242.5 -84t-97.5 -215q0 -66 19 -137q12 -39 28.5 -75t40.5 -77 l37 -65q76 -137 80 -144q39 -70 49 -100q25 -72 25 -109q0 -49 -60 -100q-14 -14 -45.5 -36.5t-52.5 -33.5q-4 -2 -72 -2q-76 0 -115.5 3.5t-72.5 15.5q-86 27 -96 41q-10 35 -43 88q-14 27 -15 61z" />
<glyph unicode="N" horiz-adv-x="540" d="M4 2v649h197q6 -2 11 -2h9q78 -4 141.5 -45t63.5 -143q0 -90 -53.5 -134t-116.5 -51h-8h-8l196 -274h-137l-117 270h-59v-270h-119zM123 317h15q63 -1 111 15q54 18 54 119q0 72 -28.5 112.5t-94.5 40.5l-57 2v-289z" />
<glyph unicode="O" horiz-adv-x="638" d="M12 993v47h520v-47h-198v-602h-127v602h-195z" />
<glyph unicode="P" horiz-adv-x="540" d="M4 391v649h197q6 -2 11 -2h9q78 -4 141.5 -45t63.5 -143q0 -106 -62.5 -145t-138.5 -43q-8 -2 -17 -2.5t-18 -0.5l-67 3v-271h-119zM123 707h15q63 0 111 15q54 17 54 118q0 72 -28.5 112.5t-94.5 40.5l-57 2v-288z" />
<glyph unicode="Q" horiz-adv-x="1488" d="M2 641q0 360 179 547.5t489 187.5q307 0 501.5 -194.5t194.5 -499.5v2q0 -367 -186.5 -552t-503.5 -187q-266 2 -470 201.5t-204 494.5zM236 810.5q0 -11.5 2 -22.5q14 -279 163.5 -510t405.5 -231q199 0 275.5 126t76.5 316v3q0 49 -7 102t-19 108q-53 229 -199 420 t-328 191q-205 0 -280.5 -126t-87.5 -276q0 -20 -1 -39.5t-1 -37.5v-23.5zM582 647q0 55 29.5 87t74.5 32v2q45 -2 79 -38t34 -81q0 -49 -33 -80.5t-82 -31.5q-41 0 -71.5 31.5t-30.5 78.5z" />
<glyph unicode="R" horiz-adv-x="1390" d="M8 1026q59 166 198.5 256t368.5 90l17 2q338 -2 507 -200.5t169 -473.5q0 -293 -227.5 -526t-571.5 -233h-10q113 98 147.5 227t38.5 264v29.5v30.5q0 195 -140 329.5t-310 179.5q-39 12 -77 17.5t-75 5.5zM80 1069q2 2 4 3t4 3q18 8 49 17.5t64 15.5q14 2 28.5 3t26.5 1 l12 2q225 -2 383 -152.5t158 -418.5q0 -180 -72.5 -330t-179.5 -219q31 6 63.5 18.5t67.5 30.5q123 70 232.5 206t150.5 286q8 33 13.5 65.5t5.5 65.5v2v12q0 195 -119 342t-262 207q-37 14 -72 22.5t-70 10.5l-10 2q-160 -2 -295 -55.5t-182 -139.5z" />
<glyph unicode="S" horiz-adv-x="858" d="M4 729q0 20 3 42t9 44q23 78 82.5 145.5t147.5 77.5q-78 12 -132.5 95.5t-54.5 240.5v7t2 10v1v1v8v6q25 -129 113 -217t186 -105q10 -2 20.5 -3t20.5 -1q115 0 212.5 94.5t119.5 206.5q2 6 3 11.5t1 11.5q0 -29 -8 -65.5t-22 -75.5q-29 -74 -81.5 -136.5t-123.5 -74.5 q106 -18 168.5 -88t62.5 -197v-12q0 -111 -66.5 -199t-144.5 -119q-18 -6 -35.5 -10t-33.5 -4v-264h170v-51h-168v-183h-158v183h-172v51h172v264q-129 8 -209 95t-84 210zM133 786v2q0 -16 2 -29.5t6 -27.5q25 -84 107 -156.5t174 -80.5q6 -2 11 -2h11q78 2 130.5 59 t52.5 141q0 164 -92.5 236.5t-202.5 72.5q-82 0 -140.5 -59t-58.5 -156z" />
<glyph unicode="T" horiz-adv-x="1003" d="M25 974.5v16.5q2 27 9 54.5t19 54.5q43 109 146.5 197.5t246.5 88.5l5 3q188 -2 310 -123t122 -289q-2 -135 -90 -252t-195 -143q-12 -2 -24.5 -4.5t-24.5 -2.5l-4 5v-347l207 -2v-47l-205 -4v-246h-191v246h-200v53h200v340q-131 0 -224 120t-105 265q-2 8 -2 16.5z M180 991q0 -12 2 -25.5t4 -27.5q25 -104 127.5 -192.5t223.5 -88.5v2h4q83 0 142 84q60 86 60 197q0 209 -107.5 287t-242.5 78q-104 0 -155.5 -89.5t-57.5 -197.5v-13.5v-13.5z" />
<glyph unicode="U" horiz-adv-x="1730" d="M23 485q0 244 130 411t414 167q180 0 288 -49t151 -160l323 322l-393 8l686 205l-274 -629l4 350l-285 -311q33 -78 47 -152t14 -141q0 -225 -133 -380t-293 -196q-27 -8 -53 -11t-51 -3q-248 0 -411.5 155.5t-163.5 413.5zM209 557q0 -35 4 -70.5t14 -70.5 q37 -154 146.5 -281t271.5 -127v2h5q120 0 212 87q94 89 121 198q4 16 6 33.5t2 33.5v3.5v3.5q-2 233 -114.5 427.5t-370.5 196.5q-131 -2 -200.5 -106.5t-88.5 -229.5q-4 -25 -6 -50t-2 -50z" />
<glyph unicode="V" horiz-adv-x="1124" d="M12 242q47 59 109.5 130.5t126.5 147.5q14 16 28.5 32.5t26.5 33.5q113 135 199 260t86 207q0 72 -55.5 120t-122.5 60q-8 0 -16.5 1t-16.5 1q-18 0 -35.5 -2t-36.5 -4q-70 -14 -136.5 -59.5t-109.5 -131.5q20 170 134 249t253 79t222.5 -84t83.5 -195v-2 q0 -119 -67 -226t-169 -214q-59 -63 -126.5 -125.5t-135.5 -128.5q-25 -23 -48.5 -45t-47.5 -45l442 2v193l152 182v-375h247v-61h-247v-297h-152v297h-588z" />
<glyph unicode="W" horiz-adv-x="1148" d="M23 1141v53h276v180h209v-176h528v-57h-526v-340q31 78 92.5 105.5t151.5 27.5q133 0 209.5 -89t76.5 -253q0 -45 -17 -94t-50 -99q-76 -121 -217.5 -233.5t-296.5 -177.5q-76 -35 -152 -54.5t-143 -21.5q205 74 389 224.5t270 318.5q25 51 40.5 102t15.5 100 q0 111 -25 158t-72 53q-84 0 -157.5 -78.5t-102.5 -173.5q-6 -23 -10 -45t-4 -43l-211 2l-2 611h-272z" />
<glyph unicode="X" horiz-adv-x="1028" d="M4 1360l137 4q29 -47 51.5 -116.5t22.5 -147.5l164 2v276h158l-2 -276h172q0 18 2 38.5t6 41.5q12 51 32.5 100t43.5 86l135 4l-11 -45q-14 -27 -26 -53.5t-21 -50.5q-10 -37 -15 -74t-5 -70q0 -61 12 -115.5t27 -95.5q12 -37 23.5 -59.5t13.5 -22.5l2 5h-135 q-37 53 -58.5 118.5t-25.5 141.5l-168 2v-359h2q12 -2 23 -3t24 -3q123 -23 225 -139.5t102 -257.5t-116.5 -251t-335.5 -112q-176 0 -312.5 119t-136.5 268v2q0 150 98.5 266.5t266.5 116.5v353h-164q0 -78 -24.5 -144.5t-61.5 -120.5h-123q0 -2 11.5 22t25.5 62 q14 41 25.5 95.5t11.5 117.5q0 45 -8.5 93.5t-26.5 97.5q-8 20 -18.5 41.5t-22.5 42.5zM160 352q0 -125 99 -229.5t220 -120.5q10 -2 20.5 -2h20.5q106 0 171 70.5t67 208.5v2q0 133 -107.5 243.5t-253.5 110.5q-113 0 -175 -73t-62 -210z" />
<glyph unicode="Y" horiz-adv-x="1294" d="M2 1188l158 180l147 -174l-82 18l6 -409q0 -72 40 -114t98 -42l151 4v561l-90 -28l156 198l157 -198l-92 18v-549l176 4h6q51 0 80 35q31 37 31 96v414l-92 -18l160 188l166 -203l-99 37v-411q0 -90 -51 -142.5t-154 -56.5l-223 2v-342h217v-61h-217v-250h-131v250h-227 v61h227v342h-221q-100 2 -154.5 60.5t-54.5 129.5l-2 424z" />
<glyph unicode="Z" horiz-adv-x="1075" d="M14 977l72 2q0 -100 94 -186t205 -117q27 -6 50.5 -10t47.5 -4q162 0 291 96t129 213l68 2q0 -106 -82 -198.5t-178 -141.5q-39 -20 -77 -30.5t-71 -10.5v-406h195v-53h-195v-205h-160v205h-200v53h200v412h-5q-146 0 -264 114q-120 116 -120 265zM158 1073q0 154 91 237 t234 83q145 0 245.5 -84t100.5 -213q0 -135 -98 -233.5t-246 -98.5v2q-10 -2 -20 -1t-21 3q-90 16 -168.5 87t-105.5 153q-6 16 -9 32.5t-3 32.5zM272 1149q0 -12 1 -24.5t3 -24.5q14 -109 85 -198t174 -89q84 0 135 53.5t51 134.5q0 23 -3 45.5t-9 47.5q-27 100 -97.5 183 t-156.5 83v2h-4q-80 -2 -123 -55.5t-52 -116.5q-2 -10 -3 -20.5t-1 -20.5z" />
<glyph unicode="[" horiz-adv-x="1560" d="M16 174q0 49 47.5 77t110.5 28l31 2q135 88 198.5 258t63.5 395q0 158 123 275.5t270 152.5q29 8 55.5 11t53.5 3q164 0 292 -97t128 -280q0 -219 -146.5 -281.5t-322.5 -68.5q-33 -2 -66 -2h-63h-1q-2 0 -4 2h-3h-1h20.5t22.5 2q135 10 249 88t114 236q0 29 -5 68.5 t-20 80.5q-23 70 -75 129.5t-146 63.5q-129 0 -201.5 -95.5t-93.5 -209.5q-2 -20 -4 -41t-2 -41q0 -211 -68.5 -393.5t-242.5 -305.5q66 -16 138.5 -41.5t145.5 -52.5q27 -10 53.5 -19t53.5 -20q90 -31 178 -52t168 -21q45 0 98.5 3t108.5 19q45 14 90 43t86 78 q-37 -119 -132 -179.5t-253 -60.5q-78 0 -180.5 28t-208.5 60q-8 2 -15.5 4.5l-13.5 4.5q-115 37 -220 67.5t-179 30.5l-17 2q-6 -2 -14 -7t-16 -12q-4 -4 -7.5 -6t-5.5 -6q-12 -10 -22 -19t-16 -9v2q-72 -2 -103 26.5t-31 79.5zM82 166l1 -5q1 -5 3 -11q4 -8 11 -13.5 t22 -5.5v2q20 -2 28.5 10.5t8.5 26.5q0 12 -6.5 18.5t-12.5 10.5q-6 2 -12 3l-6 1l2 4q0 -2 -6 -3t-15 -5q-6 -4 -11 -11.5t-7 -21.5z" />
<glyph unicode="\" />
<glyph unicode="]" />
<glyph unicode="^" horiz-adv-x="444" d="M20 932q0 55 41 96t91 49q6 2 11 2h9q59 0 105.5 -43t46.5 -104v2q0 -68 -46.5 -114t-105.5 -46h-9t-11 2q-49 8 -90.5 52t-41.5 104zM45 932q0 -45 32 -81t68 -48q6 -2 13.5 -3t13.5 -1q49 0 88 39t39 92v2q-2 51 -38 87t-89 36q-6 0 -13 -1t-14 -3q-37 -10 -68.5 -44 t-31.5 -75z" />
<glyph unicode="_" horiz-adv-x="1073" d="M-16 -72h1106v-65h-1106v65z" />
<glyph unicode="`" horiz-adv-x="149" d="M23 838l43 307h75l-88 -307h-30z" />
<glyph unicode="a" horiz-adv-x="1488" d="M18 2l201 1069h115l196 -1071h-139l-49 262h-227l-43 -260h-54zM131 336h197l-97 538zM575 186v13.5v13.5t1.5 12t3.5 13l47 26q-2 -27 -3 -50.5t-1 -45.5q0 -59 26.5 -98t57.5 -50q4 0 9 -1t9 -1h7t7 2q31 6 56.5 40t25.5 96q0 59 -26.5 92t-63.5 57q-8 6 -15 11.5 t-16 11.5q-43 33 -80.5 83t-39.5 154q0 109 45 170.5t104 61.5q70 0 113 -51.5t43 -174.5v2l-54 -16q0 2 1.5 6t1.5 10q2 8 3 18.5t1 20.5q0 66 -30 98.5t-65 37.5q-4 2 -7 2h-7t-8 -1t-8 -1q-25 -8 -45.5 -38t-20.5 -81q0 -66 31 -99.5t72 -60.5q6 -4 13 -8t13 -8 q49 -33 89 -84.5t40 -163.5q0 -59 -22.5 -109.5t-53.5 -83.5q-23 -14 -48 -19t-52 -5h-3h-3q-55 2 -101.5 49t-46.5 149zM948 367q0 164 58.5 298t183.5 134q74 0 115 -65.5t43 -168.5l-50 -35v37q0 68 -25.5 124.5t-78.5 56.5q-63 0 -90 -72t-35 -160q-4 -39 -5 -77t-1 -68 q0 -29 1 -62t5 -67q10 -80 37 -145.5t84 -65.5q63 0 94 59.5t31 140.5v13.5v13.5q-2 8 -3 18.5t-1 20.5v2l53 -23v-11t2 -11v-12v-13q0 -53 -18.5 -104t-44.5 -86q-25 -31 -58 -41t-69 -10q-119 0 -173.5 108.5t-54.5 270.5z" />
<glyph unicode="b" horiz-adv-x="1290" d="M25 2v1057h145l152 -785l151 785h145v-1057h-139v825l-157 -825h-84l-160 813v-813h-53zM717 492q0 219 76.5 395t244.5 176q100 0 157.5 -84t59.5 -221l-67 -47v49q0 88 -35 162.5t-104 74.5q-90 0 -126 -95t-46 -210q-4 -51 -5.5 -101t-1.5 -91q0 -37 2 -81t7 -87 q10 -106 46 -195.5t115 -89.5q84 0 127 82t43 188q0 10 -1 20.5t-1 20.5t-1 20.5t-1 20.5v2l70 -22v-62q0 -74 -23.5 -141t-58.5 -115q-29 -39 -65.5 -53t-75.5 -16q-8 -2 -15.5 -2h-15.5q-164 0 -234.5 145.5t-70.5 356.5z" />
<glyph unicode="c" horiz-adv-x="829" d="M14 -2v1065h133v-1065h-133zM225 502q0 215 83 389t259 174q111 0 169.5 -82t60.5 -221l-70 -47v51v3v7q-2 84 -39 154.5t-110 70.5q-94 0 -137.5 -95t-55.5 -208q-6 -51 -8 -99t-2 -89q0 -37 3 -81t9 -87q14 -106 57 -195.5t129 -89.5t133.5 81t47.5 188v20t-2 21 q0 10 -1 20t-1 21v2l71 -23v-18.5t2 -16.5v-15v-13q0 -72 -24.5 -138.5t-63.5 -113.5q-27 -33 -61.5 -48.5t-69.5 -21.5q-14 -2 -27.5 -2h-27.5q-170 0 -247 143.5t-77 358.5z" />
<glyph unicode="d" horiz-adv-x="1150" d="M8 90v137h162v936h-162v137h291v-1210h-291zM389 700q0 45 32 80t91 35q53 0 87 -33.5t34 -81.5q0 -45 -33 -79.5t-88 -34.5t-90 32q-33 35 -33 82zM725 90v1210h291v-137h-164v-936h164v-137h-291z" />
<glyph unicode="e" horiz-adv-x="1153" d="M127 697.5q102 123.5 252 144.5v530h166v-176l426 170v-135l-287 -133l291 -127v-133l-436 184v-172q145 0 252 -152q98 -137 98 -297q0 -139 -74 -247q-25 -41 -55 -72q-127 -129 -309 -129q-176 0 -304 135q-122 132 -122 319q0 167 102 290.5zM190 410q0 -113 76 -193 t187 -80q106 0 182 78q80 84 80 195t-79 193.5t-183 82.5q-55 0 -103 -18q-43 -20 -82 -62q-78 -82 -78 -196z" />
<glyph unicode="f" horiz-adv-x="1368" d="M14 799l441 53l-21 53l74 -31l29 682l41 -675l102 47l-66 -86l633 -58l-620 -41l90 -168l-133 111l-47 -823l-29 835l-115 -80l53 123zM88 799l381 -47l-47 -99l100 76l15 -682l32 668l111 -97l-74 134l529 36l-545 41l55 70l-82 -37l-26 572l-19 -574l-65 27l20 -49z " />
<glyph unicode="g" horiz-adv-x="1294" d="M12 -68v164h1180v-164h-1180zM12 391h183q-82 39 -120 157t-38 273v4t2 4v3v4q4 231 157.5 389.5t407.5 158.5q246 0 413 -159.5t167 -409.5v2q0 -23 -1 -44t-5 -44q-14 -106 -60.5 -201.5t-118.5 -138.5l193 2v-166h-500q125 57 197 199.5t88 302.5q2 23 3 45.5t1 44.5 q0 23 -2 47.5t-6 46.5q-23 152 -118 278t-251 126q-176 0 -268 -132t-107 -290q0 -16 -1 -31.5t-1 -30.5q0 -203 69 -376.5t234 -231.5l-514 2z" />
<glyph unicode="h" horiz-adv-x="2048" d="M20 1219q4 66 62.5 111.5t153.5 45.5q12 0 25 -1t26 -5q47 -10 88 -43t51 -90q25 68 80 102.5t168 36.5q18 0 39.5 -3t44.5 -11q53 -16 97 -50t52 -85q20 76 75.5 111.5t166.5 37.5q20 0 46 -6t52 -18q55 -27 101.5 -73t46.5 -105v-889q0 -156 66.5 -233t187.5 -81 q68 0 112.5 32t55.5 73q2 6 3 11t1 11v13q0 -2 -2 6t-7 18q-2 10 -7 18.5t-11 8.5l-82 -43v338l227 -226l-88 -43q2 -6 4.5 -11t6.5 -9v-2v-2q8 -10 13 -23.5t5 -31.5q0 -90 -80 -157t-227 -69q-166 2 -279.5 110.5t-113.5 260.5v915q0 51 -35 80t-101 29q-57 0 -96 -36 t-39 -81l2 -917h-211l5 913q0 51 -38 86t-98 35q-66 0 -103.5 -36t-37.5 -85l-2 -913h-209v913q0 68 -26.5 94.5t-69.5 26.5q-33 0 -56.5 -13.5t-44.5 -45.5z" />
<glyph unicode="i" horiz-adv-x="1464" d="M6 68l404 393q-10 8 -24.5 22.5t-31.5 28.5q-8 8 -17 15.5t-18 13.5q-23 16 -44 29.5t-35 19.5l47 96q16 -12 38.5 -29.5t47.5 -38.5q6 -4 13 -10t13 -12q23 -18 41.5 -35.5t30.5 -32.5l668 674l-185 23l396 139l-148 -389l-2 176l-622 -721q14 -20 27 -40.5t26 -41.5 q23 -37 40 -70.5t25 -54.5l-86 -45q-2 8 -6 19.5t-8 21.5q-14 37 -35.5 72t-48.5 61v2l-375 -436z" />
<glyph unicode="j" horiz-adv-x="1609" d="M25 1090q98 14 176 82.5t129 185.5q49 -45 102 -75t109 -48q53 -16 106 -23.5t103 -7.5v2h16q68 0 153 14q95 17 193 42q57 14 111.5 29.5t105.5 29.5q45 14 87 28.5t77 26.5q-12 -8 -23.5 -15t-21.5 -15q-223 -145 -436 -305t-381 -357q20 8 42.5 14.5t43.5 10.5 q37 8 73.5 11t69.5 3l45 2q201 -2 302.5 -93t101.5 -298q0 -174 -132.5 -297t-357.5 -123q-213 0 -360.5 131t-147.5 307q-2 4 -3 11.5t-1 15.5q0 12 2 29.5t6 33.5q6 18 14.5 37t18.5 31q-80 -29 -142.5 -101.5t-101.5 -193.5q10 145 90 250.5t193 155.5q27 59 90.5 124.5 t149.5 133.5q57 45 120.5 90t129.5 88q68 45 134 88t126 82q-117 -59 -193 -86t-143 -33q-12 -2 -24.5 -2h-24.5h-4.5h-4.5q-2 -2 -4 -2h-4q-35 0 -89 9t-114 28q-55 18 -106 44.5t-86 63.5q-37 -53 -80 -90t-86 -57q-25 -12 -48.5 -17.5t-45.5 -5.5h-9t-10 2q-10 0 -19 3 t-17 6zM524 371q0 -2 2 -4v-4.5v-4.5q0 -127 100.5 -229t219.5 -125q14 -4 27.5 -4h27.5h7h5h4.5h4.5q4 0 9 1t7 1v2q115 20 164 91t49 214q0 170 -84 251t-223 81l-27 2q-47 -2 -92 -9t-78 -18q-23 -6 -37 -11t-16 -9q-37 -27 -53.5 -88.5t-16.5 -132.5v-4z" />
<glyph unicode="k" horiz-adv-x="1949" d="M10 387q4 209 73 314.5t181 105.5l6 2q109 -2 167.5 -58.5t105.5 -215.5q10 -29 18 -63t19 -73q53 -203 104 -275.5t88 -72.5q23 0 70 55.5t98 198.5q10 29 19.5 60.5t19.5 66.5q18 63 34.5 112.5t33.5 84.5q37 84 78.5 111.5t101.5 29.5q39 0 69.5 -11t57.5 -52 q27 -39 56.5 -116t66.5 -210q49 -164 77.5 -223.5t53.5 -69.5q4 -2 9 -3t11 -1q14 0 33.5 21.5t40.5 56.5q29 53 55.5 129t38.5 160q0 -150 -30.5 -254.5t-67.5 -163.5q-27 -37 -49.5 -57.5t-36.5 -20.5h-8q-74 0 -138.5 62.5t-126.5 316.5v2q-35 141 -60.5 207.5 t-47.5 87.5q-10 10 -21.5 13t-21.5 3q-14 0 -25.5 -3t-21.5 -15q-18 -18 -40 -72.5t-57 -167.5q-23 -84 -42 -148.5t-39 -111.5q-45 -109 -93.5 -146.5t-113.5 -39.5q-80 0 -134.5 31.5t-103.5 134.5q-23 43 -44 101t-44 134q-25 88 -45 145.5t-41 90.5q-25 43 -51.5 56 t-63.5 15q-68 -2 -120 -51t-99 -213zM37 981q6 211 76.5 303t183.5 92q115 0 182.5 -50t126.5 -216q10 -31 20.5 -63.5t20.5 -71.5q53 -182 93 -241.5t67 -63.5q23 0 51.5 46t73.5 251q8 37 16 68.5t17 60.5q49 166 106 221t166 55q82 -2 134 -35.5t97 -148.5 q16 -41 32 -93.5t34 -117.5q53 -213 80.5 -261t50.5 -50v2q14 -2 31.5 18.5t34.5 54.5q29 55 53 136t41 167v3.5v3.5q-2 -164 -35 -278t-72 -177q-23 -35 -44 -53.5t-36 -18.5q-16 0 -32.5 5.5t-32.5 17.5q-33 27 -68 101.5t-84 240.5q-20 78 -38.5 135t-39.5 98 q-31 63 -61.5 91t-64.5 28q-57 0 -108.5 -62.5t-94.5 -244.5q-29 -119 -55.5 -195.5t-53.5 -124.5q-29 -51 -58.5 -69.5t-62.5 -18.5l-2 4l-6 -2h-3q-43 0 -105 64q-64 66 -158 321q-47 125 -85 194t-75 101q-23 20 -46 28.5t-48 10.5q-68 -4 -120 -52t-99 -214z" />
<glyph unicode="l" horiz-adv-x="1220" d="M8 1384q168 -53 274.5 -223t133.5 -362q6 -31 8 -62.5t2 -62.5q6 0 13 1t14 3q23 2 50 4t58 2h7h5q37 0 70 -2t53 -8q4 219 105.5 410.5t312.5 293.5q-88 -92 -140 -240.5t-73 -308.5q-4 -49 -7 -96t-3 -92q10 -2 21.5 -3t21.5 -5q31 -6 58.5 -15.5t41.5 -19.5v-96 q-10 4 -20 10t-21 10q-25 10 -48 16.5t-54 8.5v2v-19.5v-19.5q4 -162 50 -317.5t169 -266.5q-145 57 -269 237.5t-145 385.5q0 6 -1 12t-1 12q-25 6 -58.5 8.5t-74.5 2.5q-39 0 -72.5 -2t-62.5 -9q-31 -231 -129 -409t-285 -236q115 102 162 243.5t57 289.5q0 25 1 47t1 45 q-45 -4 -88 -16.5t-69 -28.5v98q25 14 63.5 27.5t79.5 19.5q4 0 7 1t7 1q0 61 -6 128t-20 135q-25 133 -74 256.5t-125 209.5z" />
<glyph unicode="m" horiz-adv-x="1452" d="M18 1171q0 16 11.5 44t25.5 61q16 47 43 72q36 32 92 32h3h48t52 2q45 0 88 -4t80 -29.5t76 -50.5q34 -30 34 -83q0 -44 -24 -123q-14 -41 -41 -81t-53 -87l-45 -80q-51 -88 -75 -168t-24 -144q0 -143 98.5 -240t260.5 -97q145 0 242.5 83.5t97.5 215.5q0 66 -15.5 121 t-32 90.5t-40.5 76.5l-37 66q-76 137 -80 143q-39 70 -49 101q-25 72 -25 108q0 49 59 100q14 14 46 37t53 33q4 2 71 2q76 0 116 -3t73 -15q86 -27 96 -41q10 -35 43 -88q14 -27 14 -62q0 -23 -6 -61q0 -15 2 -29q-25 -2 -45 -2q-35 0 -71 10q-10 6 -11 21q2 27 2 49 q0 16 -2 25q-20 51 -34.5 64t-39 19.5t-46 7.5t-33.5 3q-37 0 -57.5 -8.5t-42 -25.5t-28.5 -37.5t-7 -49.5q2 -43 2 -68q0 -39 30 -86q20 -31 54 -64.5t73 -111.5q2 -18 4 -37q96 -170 97 -297q0 -168 -134.5 -278.5t-338.5 -110.5q-221 0 -356.5 117t-135.5 313q0 43 6 86 t16.5 77t38 95.5t68.5 141.5l62 123q80 158 77 165q-2 -4 -4 -6q-29 41 -49 53.5t-51 12.5q-43 -2 -76 -2q-35 0 -69.5 -22.5t-34.5 -53.5q-4 -29 -4 -45q0 -20 10 -64h-146q-2 70 -2 84z" />
<glyph unicode="n" horiz-adv-x="540" d="M4 0v649h197q6 -2 11 -2h9q78 -4 141.5 -45t63.5 -143q0 -90 -53.5 -134t-116.5 -51h-8h-8l196 -274h-137l-117 270h-59v-270h-119zM123 315h15q63 -1 111 15q54 18 54 119q0 72 -28.5 112.5t-94.5 40.5l-57 2v-289z" />
<glyph unicode="o" horiz-adv-x="638" d="M12 993v47h520v-47h-198v-602h-127v602h-195z" />
<glyph unicode="p" horiz-adv-x="540" d="M4 391v649h197q6 -2 11 -2h9q78 -4 141.5 -45t63.5 -143q0 -106 -62.5 -145t-138.5 -43q-8 -2 -17 -2.5t-18 -0.5l-67 3v-271h-119zM123 707h15q63 0 111 15q54 17 54 118q0 72 -28.5 112.5t-94.5 40.5l-57 2v-288z" />
<glyph unicode="q" horiz-adv-x="1488" d="M2 641q0 360 179 547.5t489 187.5q307 0 501.5 -194.5t194.5 -499.5v2q0 -367 -186.5 -552t-503.5 -187q-266 2 -470 201.5t-204 494.5zM236 810.5q0 -11.5 2 -22.5q14 -279 163.5 -510t405.5 -231q199 0 275.5 126t76.5 316v3q0 49 -7 102t-19 108q-53 229 -199 420 t-328 191q-205 0 -280.5 -126t-87.5 -276q0 -20 -1 -39.5t-1 -37.5v-23.5zM582 647q0 55 29.5 87t74.5 32v2q45 -2 79 -38t34 -81q0 -49 -33 -80.5t-82 -31.5q-41 0 -71.5 31.5t-30.5 78.5z" />
<glyph unicode="r" horiz-adv-x="1390" d="M8 1026q59 166 198.5 256t368.5 90l17 2q338 -2 507 -200.5t169 -473.5q0 -293 -227.5 -526t-571.5 -233h-10q113 98 147.5 227t38.5 264v29.5v30.5q0 195 -140 329.5t-310 179.5q-39 12 -77 17.5t-75 5.5zM80 1069q2 2 4 3t4 3q18 8 49 17.5t64 15.5q14 2 28.5 3t26.5 1 l12 2q225 -2 383 -152.5t158 -418.5q0 -180 -72.5 -330t-179.5 -219q31 6 63.5 18.5t67.5 30.5q123 70 232.5 206t150.5 286q8 33 13.5 65.5t5.5 65.5v2v12q0 195 -119 342t-262 207q-37 14 -72 22.5t-70 10.5l-10 2q-160 -2 -295 -55.5t-182 -139.5z" />
<glyph unicode="s" horiz-adv-x="858" d="M4 729q0 20 3 42t9 44q23 78 82.5 145.5t147.5 77.5q-78 12 -132.5 95.5t-54.5 240.5v7t2 10v1v1v8v6q25 -129 113 -217t186 -105q10 -2 20.5 -3t20.5 -1q115 0 212.5 94.5t119.5 206.5q2 6 3 11.5t1 11.5q0 -29 -8 -65.5t-22 -75.5q-29 -74 -81.5 -136.5t-123.5 -74.5 q106 -18 168.5 -88t62.5 -197v-12q0 -111 -66.5 -199t-144.5 -119q-18 -6 -35.5 -10t-33.5 -4v-264h170v-51h-168v-183h-158v183h-172v51h172v264q-129 8 -209 95t-84 210zM133 786v2q0 -16 2 -29.5t6 -27.5q25 -84 107 -156.5t174 -80.5q6 -2 11 -2h11q78 2 130.5 59 t52.5 141q0 164 -92.5 236.5t-202.5 72.5q-82 0 -140.5 -59t-58.5 -156z" />
<glyph unicode="t" horiz-adv-x="1003" d="M25 974.5v16.5q2 27 9 54.5t19 54.5q43 109 146.5 197.5t246.5 88.5l5 3q188 -2 310 -123t122 -289q-2 -135 -90 -252t-195 -143q-12 -2 -24.5 -4.5t-24.5 -2.5l-4 5v-347l207 -2v-47l-205 -4v-246h-191v246h-200v53h200v340q-131 0 -224 120t-105 265q-2 8 -2 16.5z M180 991q0 -12 2 -25.5t4 -27.5q25 -104 127.5 -192.5t223.5 -88.5v2h4q83 0 142 84q60 86 60 197q0 209 -107.5 287t-242.5 78q-104 0 -155.5 -89.5t-57.5 -197.5v-13.5v-13.5z" />
<glyph unicode="u" horiz-adv-x="1730" d="M23 485q0 244 130 411t414 167q180 0 288 -49t151 -160l323 322l-393 8l686 205l-274 -629l4 350l-285 -311q33 -78 47 -152t14 -141q0 -225 -133 -380t-293 -196q-27 -8 -53 -11t-51 -3q-248 0 -411.5 155.5t-163.5 413.5zM209 557q0 -35 4 -70.5t14 -70.5 q37 -154 146.5 -281t271.5 -127v2h5q120 0 212 87q94 89 121 198q4 16 6 33.5t2 33.5v3.5v3.5q-2 233 -114.5 427.5t-370.5 196.5q-131 -2 -200.5 -106.5t-88.5 -229.5q-4 -25 -6 -50t-2 -50z" />
<glyph unicode="v" horiz-adv-x="1124" d="M12 242q47 59 109.5 130.5t126.5 147.5q14 16 28.5 32.5t26.5 33.5q113 135 199 260t86 207q0 72 -55.5 120t-122.5 60q-8 0 -16.5 1t-16.5 1q-18 0 -35.5 -2t-36.5 -4q-70 -14 -136.5 -59.5t-109.5 -131.5q20 170 134 249t253 79t222.5 -84t83.5 -195v-2 q0 -119 -67 -226t-169 -214q-59 -63 -126.5 -125.5t-135.5 -128.5q-25 -23 -48.5 -45t-47.5 -45l442 2v193l152 182v-375h247v-61h-247v-297h-152v297h-588z" />
<glyph unicode="w" horiz-adv-x="1148" d="M23 1141v53h276v180h209v-176h528v-57h-526v-340q31 78 92.5 105.5t151.5 27.5q133 0 209.5 -89t76.5 -253q0 -45 -17 -94t-50 -99q-76 -121 -217.5 -233.5t-296.5 -177.5q-76 -35 -152 -54.5t-143 -21.5q205 74 389 224.5t270 318.5q25 51 40.5 102t15.5 100 q0 111 -25 158t-72 53q-84 0 -157.5 -78.5t-102.5 -173.5q-6 -23 -10 -45t-4 -43l-211 2l-2 611h-272z" />
<glyph unicode="x" horiz-adv-x="1028" d="M4 1360l137 4q29 -47 51.5 -116.5t22.5 -147.5l164 2v276h158l-2 -276h172q0 18 2 38.5t6 41.5q12 51 32.5 100t43.5 86l135 4l-11 -45q-14 -27 -26 -53.5t-21 -50.5q-10 -37 -15 -74t-5 -70q0 -61 12 -115.5t27 -95.5q12 -37 23.5 -59.5t13.5 -22.5l2 5h-135 q-37 53 -58.5 118.5t-25.5 141.5l-168 2v-359h2q12 -2 23 -3t24 -3q123 -23 225 -139.5t102 -257.5t-116.5 -251t-335.5 -112q-176 0 -312.5 119t-136.5 268v2q0 150 98.5 266.5t266.5 116.5v353h-164q0 -78 -24.5 -144.5t-61.5 -120.5h-123q0 -2 11.5 22t25.5 62 q14 41 25.5 95.5t11.5 117.5q0 45 -8.5 93.5t-26.5 97.5q-8 20 -18.5 41.5t-22.5 42.5zM160 352q0 -125 99 -229.5t220 -120.5q10 -2 20.5 -2h20.5q106 0 171 70.5t67 208.5v2q0 133 -107.5 243.5t-253.5 110.5q-113 0 -175 -73t-62 -210z" />
<glyph unicode="y" horiz-adv-x="1294" d="M2 1188l158 180l147 -174l-82 18l6 -409q0 -72 40 -114t98 -42l151 4v561l-90 -28l156 198l157 -198l-92 18v-549l176 4h6q51 0 80 35q31 37 31 96v414l-92 -18l160 188l166 -203l-99 37v-411q0 -90 -51 -142.5t-154 -56.5l-223 2v-342h217v-61h-217v-250h-131v250h-227 v61h227v342h-221q-100 2 -154.5 60.5t-54.5 129.5l-2 424z" />
<glyph unicode="z" horiz-adv-x="1075" d="M14 977l72 2q0 -100 94 -186t205 -117q27 -6 50.5 -10t47.5 -4q162 0 291 96t129 213l68 2q0 -106 -82 -198.5t-178 -141.5q-39 -20 -77 -30.5t-71 -10.5v-406h195v-53h-195v-205h-160v205h-200v53h200v412h-5q-146 0 -264 114q-120 116 -120 265zM158 1073q0 154 91 237 t234 83q145 0 245.5 -84t100.5 -213q0 -135 -98 -233.5t-246 -98.5v2q-10 -2 -20 -1t-21 3q-90 16 -168.5 87t-105.5 153q-6 16 -9 32.5t-3 32.5zM272 1149q0 -12 1 -24.5t3 -24.5q14 -109 85 -198t174 -89q84 0 135 53.5t51 134.5q0 23 -3 45.5t-9 47.5q-27 100 -97.5 183 t-156.5 83v2h-4q-80 -2 -123 -55.5t-52 -116.5q-2 -10 -3 -20.5t-1 -20.5z" />
<glyph unicode="{" />
<glyph unicode="|" />
<glyph unicode="}" />
<glyph unicode="~" />
<glyph unicode="&#xa0;" />
<glyph unicode="&#xa1;" />
<glyph unicode="&#xa2;" />
<glyph unicode="&#xa3;" />
<glyph unicode="&#xa4;" />
<glyph unicode="&#xa5;" />
<glyph unicode="&#xa6;" />
<glyph unicode="&#xa7;" />
<glyph unicode="&#xa8;" />
<glyph unicode="&#xa9;" />
<glyph unicode="&#xaa;" />
<glyph unicode="&#xab;" />
<glyph unicode="&#xac;" />
<glyph unicode="&#xad;" />
<glyph unicode="&#xae;" />
<glyph unicode="&#xaf;" />
<glyph unicode="&#xb0;" />
<glyph unicode="&#xb1;" />
<glyph unicode="&#xb2;" />
<glyph unicode="&#xb3;" />
<glyph unicode="&#xb4;" />
<glyph unicode="&#xb5;" />
<glyph unicode="&#xb6;" />
<glyph unicode="&#xb7;" />
<glyph unicode="&#xb8;" />
<glyph unicode="&#xb9;" />
<glyph unicode="&#xba;" />
<glyph unicode="&#xbb;" />
<glyph unicode="&#xbc;" />
<glyph unicode="&#xbd;" />
<glyph unicode="&#xbe;" />
<glyph unicode="&#xbf;" />
<glyph unicode="&#xc0;" />
<glyph unicode="&#xc1;" />
<glyph unicode="&#xc2;" />
<glyph unicode="&#xc3;" />
<glyph unicode="&#xc4;" />
<glyph unicode="&#xc5;" />
<glyph unicode="&#xc6;" />
<glyph unicode="&#xc7;" />
<glyph unicode="&#xc8;" />
<glyph unicode="&#xc9;" />
<glyph unicode="&#xca;" />
<glyph unicode="&#xcb;" />
<glyph unicode="&#xcc;" />
<glyph unicode="&#xcd;" />
<glyph unicode="&#xce;" />
<glyph unicode="&#xcf;" />
<glyph unicode="&#xd0;" />
<glyph unicode="&#xd1;" />
<glyph unicode="&#xd2;" />
<glyph unicode="&#xd3;" />
<glyph unicode="&#xd4;" />
<glyph unicode="&#xd5;" />
<glyph unicode="&#xd6;" />
<glyph unicode="&#xd7;" />
<glyph unicode="&#xd8;" />
<glyph unicode="&#xd9;" />
<glyph unicode="&#xda;" />
<glyph unicode="&#xdb;" />
<glyph unicode="&#xdc;" />
<glyph unicode="&#xdd;" />
<glyph unicode="&#xde;" />
<glyph unicode="&#xdf;" />
<glyph unicode="&#xe0;" />
<glyph unicode="&#xe1;" />
<glyph unicode="&#xe2;" />
<glyph unicode="&#xe3;" />
<glyph unicode="&#xe4;" />
<glyph unicode="&#xe5;" />
<glyph unicode="&#xe6;" />
<glyph unicode="&#xe7;" />
<glyph unicode="&#xe8;" />
<glyph unicode="&#xe9;" />
<glyph unicode="&#xea;" />
<glyph unicode="&#xeb;" />
<glyph unicode="&#xec;" />
<glyph unicode="&#xed;" />
<glyph unicode="&#xee;" />
<glyph unicode="&#xef;" />
<glyph unicode="&#xf0;" />
<glyph unicode="&#xf1;" />
<glyph unicode="&#xf2;" />
<glyph unicode="&#xf3;" />
<glyph unicode="&#xf4;" />
<glyph unicode="&#xf5;" />
<glyph unicode="&#xf6;" />
<glyph unicode="&#xf7;" />
<glyph unicode="&#xf8;" />
<glyph unicode="&#xf9;" />
<glyph unicode="&#xfa;" />
<glyph unicode="&#xfb;" />
<glyph unicode="&#xfc;" />
<glyph unicode="&#xfd;" />
<glyph unicode="&#xfe;" />
<glyph unicode="&#xff;" />
<glyph unicode="&#x152;" />
<glyph unicode="&#x153;" />
<glyph unicode="&#x178;" />
<glyph unicode="&#x2c6;" />
<glyph unicode="&#x2dc;" />
<glyph unicode="&#x2000;" horiz-adv-x="778" />
<glyph unicode="&#x2001;" horiz-adv-x="1556" />
<glyph unicode="&#x2002;" horiz-adv-x="778" />
<glyph unicode="&#x2003;" horiz-adv-x="1556" />
<glyph unicode="&#x2004;" horiz-adv-x="518" />
<glyph unicode="&#x2005;" horiz-adv-x="389" />
<glyph unicode="&#x2006;" horiz-adv-x="259" />
<glyph unicode="&#x2007;" horiz-adv-x="259" />
<glyph unicode="&#x2008;" horiz-adv-x="194" />
<glyph unicode="&#x2009;" horiz-adv-x="311" />
<glyph unicode="&#x200a;" horiz-adv-x="86" />
<glyph unicode="&#x2010;" horiz-adv-x="808" d="M12 115v92h676v-92h-676zM12 563v101h283v268h104v-268h289v-99h-287v-248h-106v246h-283z" />
<glyph unicode="&#x2011;" horiz-adv-x="808" d="M12 115v92h676v-92h-676zM12 563v101h283v268h104v-268h289v-99h-287v-248h-106v246h-283z" />
<glyph unicode="&#x2012;" horiz-adv-x="808" d="M12 115v92h676v-92h-676zM12 563v101h283v268h104v-268h289v-99h-287v-248h-106v246h-283z" />
<glyph unicode="&#x2013;" />
<glyph unicode="&#x2014;" />
<glyph unicode="&#x2018;" />
<glyph unicode="&#x2019;" />
<glyph unicode="&#x201a;" />
<glyph unicode="&#x201c;" />
<glyph unicode="&#x201d;" />
<glyph unicode="&#x201e;" />
<glyph unicode="&#x2022;" />
<glyph unicode="&#x2026;" />
<glyph unicode="&#x202f;" horiz-adv-x="311" />
<glyph unicode="&#x2039;" />
<glyph unicode="&#x203a;" />
<glyph unicode="&#x205f;" horiz-adv-x="389" />
<glyph unicode="&#x2122;" />
<glyph unicode="&#x25fc;" horiz-adv-x="1382" d="M0 0v1382h1382v-1382h-1382z" />
</font>
</defs>
</svg>
