<?xml version="1.0" standalone="no"?>
<!DOCTYPE svg PUBLIC "-//W3C//DTD SVG 20010904//EN"
 "http://www.w3.org/TR/2001/REC-SVG-20010904/DTD/svg10.dtd">
<svg version="1.0" xmlns="http://www.w3.org/2000/svg"
 width="100.000000pt" height="100.000000pt" viewBox="0 0 100.000000 100.000000"
 preserveAspectRatio="xMidYMid meet">
<metadata>
Created by potrace 1.11, written by Peter Selinger 2001-2013
</metadata>
<g transform="translate(0.000000,100.000000) scale(0.100000,-0.100000)"
fill="#000000" stroke="none">
<path d="M748 889 c-10 -6 -18 -15 -18 -22 0 -7 -89 -58 -198 -113 -169 -87
-197 -104 -194 -122 2 -16 -7 -26 -36 -41 -37 -19 -73 -51 -57 -51 5 0 -13
-11 -40 -25 -33 -16 -53 -21 -61 -14 -7 6 -15 5 -23 -5 -10 -11 -5 -29 24 -85
32 -65 37 -70 56 -61 17 10 18 14 7 28 -8 10 -9 13 -1 9 6 -4 32 4 57 18 26
14 46 20 48 14 2 -6 25 1 56 17 50 26 53 26 66 9 10 -14 16 -15 34 -6 28 15
32 14 32 -7 0 -11 9 -27 20 -37 19 -17 29 -66 13 -64 -23 4 -33 -3 -33 -21 0
-13 7 -20 20 -20 18 0 11 -12 -40 -79 -56 -75 -64 -100 -26 -85 9 3 16 9 16
13 0 3 14 22 30 41 16 19 31 40 32 45 1 6 4 -19 7 -54 5 -54 9 -65 26 -67 19
-3 20 2 19 63 l-1 67 26 -34 c49 -64 56 -70 79 -75 l24 -4 -28 37 c-15 20 -43
57 -62 82 -30 40 -32 45 -15 50 25 7 29 40 5 40 -37 0 -38 32 -3 72 9 10 16
37 16 61 0 23 4 47 8 54 13 20 205 113 229 110 21 -2 23 1 20 38 -4 50 -40
131 -79 175 -17 19 -32 40 -34 47 -3 8 -9 9 -21 2z"/>
</g>
</svg>
